<?xml version="1.0" encoding="UTF-8"?>
<!DOCTYPE svg PUBLIC "-//W3C//DTD SVG 1.1//EN"
    "http://www.w3.org/Graphics/SVG/1.1/DTD/svg11.dtd"><svg xmlns="http://www.w3.org/2000/svg" height="480.0000" stroke-opacity="1" viewBox="0 0 480 480" font-size="1" width="480.0000" xmlns:xlink="http://www.w3.org/1999/xlink" stroke="rgb(0,0,0)" version="1.1"><defs></defs><g stroke-linejoin="round" stroke-opacity="1.0" fill-opacity="0.2222222222222222" stroke="rgb(0,0,0)" stroke-width="1.7867613294760314" fill="rgb(255,255,255)" stroke-linecap="butt" stroke-miterlimit="10.0"><path d="M 240.0000,222.3244 l 10.2050,29.4593 l -10.2050,-5.8919 l -10.2050,5.8919 Z"/></g><g stroke-linejoin="miter" stroke-opacity="1.0" fill-opacity="0.0" stroke="rgb(0,0,0)" stroke-width="1.7867613294760314" fill="rgb(0,0,0)" stroke-linecap="butt" stroke-miterlimit="10.0"><path d="M 220.3189,251.3629 l 19.6811,11.3629 l 19.6811,-11.3629 l -0.0000,-22.7258 l -19.6811,-11.3629 l -19.6811,11.3629 Z"/></g><g stroke-linejoin="miter" stroke-opacity="1.0" fill-opacity="0.0" stroke="rgb(0,0,0)" stroke-width="1.7867613294760314" fill="rgb(0,0,0)" stroke-linecap="butt" stroke-miterlimit="10.0"><path d="M 224.6925,248.8378 l 15.3075,8.8378 l 15.3075,-8.8378 l -0.0000,-17.6756 l -15.3075,-8.8378 l -15.3075,8.8378 Z"/></g><g stroke-linejoin="round" stroke-opacity="1.0" fill-opacity="0.2222222222222222" stroke="rgb(0,0,0)" stroke-width="1.7867613294760314" fill="rgb(0,0,0)" stroke-linecap="butt" stroke-miterlimit="10.0"><path d="M 240.0000,257.6756 l -10.2050,-29.4593 l 10.2050,5.8919 l 10.2050,-5.8919 Z"/></g><g stroke-linejoin="miter" stroke-opacity="1.0" fill-opacity="0.0" stroke="rgb(0,0,0)" stroke-width="1.7867613294760314" fill="rgb(0,0,0)" stroke-linecap="butt" stroke-miterlimit="10.0"><path d="M 259.6811,228.6371 l -19.6811,-11.3629 l -19.6811,11.3629 l 0.0000,22.7258 l 19.6811,11.3629 l 19.6811,-11.3629 Z"/></g><g stroke-linejoin="miter" stroke-opacity="1.0" fill-opacity="0.0" stroke="rgb(0,0,0)" stroke-width="1.7867613294760314" fill="rgb(0,0,0)" stroke-linecap="butt" stroke-miterlimit="10.0"><path d="M 255.3075,231.1622 l -15.3075,-8.8378 l -15.3075,8.8378 l 0.0000,17.6756 l 15.3075,8.8378 l 15.3075,-8.8378 Z"/></g><g stroke-linejoin="miter" stroke-opacity="1.0" fill-opacity="1.0" stroke="rgb(0,0,0)" fill-rule="evenodd" stroke-width="0.0" fill="rgb(0,0,0)" stroke-linecap="butt" stroke-miterlimit="10.0"><path d="M 256.9753,248.9999 ZM 256.9517,249.2362 l 1.2095,0.6983 l -0.1207,0.2091 l -0.4082,0.0364 l 0.1735,0.3701 l -0.1217,0.2107 l -1.2095,-0.6983 c -0.0465,-0.0268 -0.0626,-0.0870 -0.0358 -0.1335c 0.0268,-0.0465 0.0861,-0.0609 0.1325 -0.0341l 0.9789,0.5652 l -0.1384,-0.2967 l -0.0431,-0.0249 c -0.0465,-0.0268 -0.0626,-0.0870 -0.0367 -0.1318c 0.0268,-0.0465 0.0870,-0.0626 0.1335 -0.0358l 0.0431,0.0249 l 0.3219,-0.0287 l -0.9756,-0.5633 c -0.0465,-0.0268 -0.0626,-0.0870 -0.0358 -0.1335c 0.0268,-0.0465 0.0861,-0.0609 0.1325 -0.0341Z"/></g><g stroke-linejoin="miter" stroke-opacity="1.0" fill-opacity="1.0" stroke="rgb(0,0,0)" fill-rule="evenodd" stroke-width="0.0" fill="rgb(0,0,0)" stroke-linecap="butt" stroke-miterlimit="10.0"><path d="M 240.6916,259.2010 ZM 240.4809,259.2987 l -0.3889,1.3277 c -0.0115,0.0402 -0.0479,0.0690 -0.0920 0.0690c -0.0421,-0.0000 -0.0824,-0.0287 -0.0939 -0.0690l -0.3870,-1.3277 c 0.0000,-0.0536 0.0460,-0.0977 0.0996 -0.0977c 0.0441,0.0000 0.0805,0.0287 0.0920 0.0690l 0.0747,0.2567 l 0.4272,0.0000 l 0.0747,-0.2567 c 0.0115,-0.0402 0.0498,-0.0690 0.0939 -0.0690c 0.0536,0.0000 0.0996,0.0441 0.0996 0.0977ZM 240.4809,259.2987 ZM 240.1552,259.7202 l -0.3123,-0.0000 l 0.1571,0.5326 Z"/></g><g stroke-linejoin="miter" stroke-opacity="1.0" fill-opacity="1.0" stroke="rgb(0,0,0)" fill-rule="evenodd" stroke-width="0.0" fill="rgb(0,0,0)" stroke-linecap="butt" stroke-miterlimit="10.0"><path d="M 223.7182,250.2011 ZM 223.5254,250.0625 l -1.2095,0.6983 l -0.3314,-0.5741 c -0.0795,-0.1377 -0.0311,-0.3183 0.1049 -0.3968l 0.2987,-0.1724 c 0.1377,-0.0795 0.3183,-0.0311 0.3978 0.1066l 0.2347,0.4065 l 0.4082,-0.2356 c 0.0465,-0.0268 0.1066,-0.0107 0.1335 0.0358c 0.0268,0.0465 0.0097,0.1050 -0.0367 0.1318ZM 223.5254,250.0625 ZM 222.8529,250.2273 l -0.2347,-0.4065 c -0.0259,-0.0448 -0.0870,-0.0626 -0.1335 -0.0358l -0.2987,0.1724 c -0.0448,0.0259 -0.0590,0.0894 -0.0341 0.1325l 0.2347,0.4065 l 0.4662,-0.2692 Z"/></g><g stroke-linejoin="miter" stroke-opacity="1.0" fill-opacity="1.0" stroke="rgb(0,0,0)" fill-rule="evenodd" stroke-width="0.0" fill="rgb(0,0,0)" stroke-linecap="butt" stroke-miterlimit="10.0"><path d="M 223.0247,231.0001 ZM 223.0483,230.7638 l -1.1266,-0.6504 c -0.0448,-0.0259 -0.0619,-0.0844 -0.0351 -0.1309c 0.0268,-0.0465 0.0870,-0.0626 0.1318 -0.0367l 0.4795,0.2768 l 0.2835,-0.4911 l -0.4795,-0.2768 c -0.0448,-0.0259 -0.0619,-0.0844 -0.0351 -0.1309c 0.0268,-0.0465 0.0870,-0.0626 0.1318 -0.0367l 1.1266,0.6504 c 0.0465,0.0268 0.0626,0.0870 0.0358 0.1335c -0.0268,0.0465 -0.0861,0.0609 -0.1325 0.0341l -0.4795,-0.2768 l -0.2835,0.4911 l 0.4795,0.2768 c 0.0465,0.0268 0.0626,0.0870 0.0358 0.1335c -0.0268,0.0465 -0.0861,0.0609 -0.1325 0.0341Z"/></g><g stroke-linejoin="miter" stroke-opacity="1.0" fill-opacity="1.0" stroke="rgb(0,0,0)" fill-rule="evenodd" stroke-width="0.0" fill="rgb(0,0,0)" stroke-linecap="butt" stroke-miterlimit="10.0"><path d="M 239.3084,220.7990 ZM 239.5191,220.7013 l 0.3889,-1.3277 c 0.0115,-0.0402 0.0479,-0.0690 0.0920 -0.0690c 0.0421,-0.0000 0.0824,0.0287 0.0939 0.0690l 0.3870,1.3277 c 0.0000,0.0536 -0.0460,0.0977 -0.0996 0.0977c -0.0441,-0.0000 -0.0805,-0.0287 -0.0920 -0.0690l -0.0747,-0.2567 h -0.4272 l -0.0747,0.2567 c -0.0115,0.0402 -0.0498,0.0690 -0.0939 0.0690c -0.0536,-0.0000 -0.0996,-0.0441 -0.0996 -0.0977ZM 239.5191,220.7013 ZM 239.8448,220.2798 h 0.3123 l -0.1571,-0.5326 Z"/></g><g stroke-linejoin="miter" stroke-opacity="1.0" fill-opacity="1.0" stroke="rgb(0,0,0)" fill-rule="evenodd" stroke-width="0.0" fill="rgb(0,0,0)" stroke-linecap="butt" stroke-miterlimit="10.0"><path d="M 256.2818,229.7989 ZM 256.4746,229.9375 l 1.2095,-0.6983 l 0.3314,0.5741 c 0.0795,0.1377 0.0311,0.3183 -0.1066 0.3978l -0.0863,0.0498 c -0.1361,0.0785 -0.3192,0.0295 -0.3978 -0.1066l -0.0556,-0.0962 l -0.3829,0.6702 c -0.0094,0.0143 -0.0198,0.0269 -0.0348 0.0356c -0.0465,0.0268 -0.1066,0.0107 -0.1335 -0.0358c -0.0182,-0.0315 -0.0169,-0.0677 -0.0007 -0.0970l 0.4388,-0.7688 l -0.0661,-0.1145 l -0.6189,0.3573 c -0.0465,0.0268 -0.1066,0.0107 -0.1335 -0.0358c -0.0268,-0.0465 -0.0097,-0.1050 0.0367 -0.1318ZM 256.4746,229.9375 ZM 257.3578,229.6510 l 0.2347,0.4065 c 0.0259,0.0448 0.0887,0.0616 0.1335 0.0358l 0.0863,-0.0498 c 0.0465,-0.0268 0.0616,-0.0887 0.0358 -0.1335l -0.2347,-0.4065 l -0.2555,0.1475 Z"/></g><g stroke-linejoin="round" stroke-opacity="1.0" fill-opacity="0.2222222222222222" stroke="rgb(0,0,0)" stroke-width="1.7867613294760314" fill="rgb(255,255,255)" stroke-linecap="butt" stroke-miterlimit="10.0"><path d="M 240.0000,217.2742 l 13.1207,37.8763 l -13.1207,-7.5753 l -13.1207,7.5753 Z"/></g><g stroke-linejoin="miter" stroke-opacity="1.0" fill-opacity="0.0" stroke="rgb(0,0,0)" stroke-width="1.7867613294760314" fill="rgb(0,0,0)" stroke-linecap="butt" stroke-miterlimit="10.0"><path d="M 214.6958,254.6094 l 25.3042,14.6094 l 25.3042,-14.6094 l -0.0000,-29.2188 l -25.3042,-14.6094 l -25.3042,14.6094 Z"/></g><g stroke-linejoin="miter" stroke-opacity="1.0" fill-opacity="0.0" stroke="rgb(0,0,0)" stroke-width="1.7867613294760314" fill="rgb(0,0,0)" stroke-linecap="butt" stroke-miterlimit="10.0"><path d="M 220.3189,251.3629 l 19.6811,11.3629 l 19.6811,-11.3629 l -0.0000,-22.7258 l -19.6811,-11.3629 l -19.6811,11.3629 Z"/></g><g stroke-linejoin="round" stroke-opacity="1.0" fill-opacity="0.2222222222222222" stroke="rgb(0,0,0)" stroke-width="1.7867613294760314" fill="rgb(0,0,0)" stroke-linecap="butt" stroke-miterlimit="10.0"><path d="M 240.0000,262.7258 l -13.1207,-37.8763 l 13.1207,7.5753 l 13.1207,-7.5753 Z"/></g><g stroke-linejoin="miter" stroke-opacity="1.0" fill-opacity="0.0" stroke="rgb(0,0,0)" stroke-width="1.7867613294760314" fill="rgb(0,0,0)" stroke-linecap="butt" stroke-miterlimit="10.0"><path d="M 265.3042,225.3906 l -25.3042,-14.6094 l -25.3042,14.6094 l 0.0000,29.2188 l 25.3042,14.6094 l 25.3042,-14.6094 Z"/></g><g stroke-linejoin="miter" stroke-opacity="1.0" fill-opacity="0.0" stroke="rgb(0,0,0)" stroke-width="1.7867613294760314" fill="rgb(0,0,0)" stroke-linecap="butt" stroke-miterlimit="10.0"><path d="M 259.6811,228.6371 l -19.6811,-11.3629 l -19.6811,11.3629 l 0.0000,22.7258 l 19.6811,11.3629 l 19.6811,-11.3629 Z"/></g><g stroke-linejoin="miter" stroke-opacity="1.0" fill-opacity="1.0" stroke="rgb(0,0,0)" fill-rule="evenodd" stroke-width="0.0" fill="rgb(0,0,0)" stroke-linecap="butt" stroke-miterlimit="10.0"><path d="M 261.8254,251.5713 ZM 261.7950,251.8751 l 1.5551,0.8978 l -0.1552,0.2688 l -0.5248,0.0469 l 0.2231,0.4758 l -0.1564,0.2709 l -1.5551,-0.8978 c -0.0597,-0.0345 -0.0805,-0.1119 -0.0460 -0.1716c 0.0345,-0.0597 0.1106,-0.0783 0.1704 -0.0438l 1.2586,0.7267 l -0.1780,-0.3815 l -0.0555,-0.0320 c -0.0597,-0.0345 -0.0805,-0.1119 -0.0472 -0.1695c 0.0345,-0.0597 0.1119,-0.0805 0.1716 -0.0460l 0.0555,0.0320 l 0.4139,-0.0370 l -1.2543,-0.7242 c -0.0597,-0.0345 -0.0805,-0.1119 -0.0460 -0.1716c 0.0345,-0.0597 0.1106,-0.0783 0.1704 -0.0438Z"/></g><g stroke-linejoin="miter" stroke-opacity="1.0" fill-opacity="1.0" stroke="rgb(0,0,0)" fill-rule="evenodd" stroke-width="0.0" fill="rgb(0,0,0)" stroke-linecap="butt" stroke-miterlimit="10.0"><path d="M 240.8892,264.6870 ZM 240.6183,264.8126 l -0.5000,1.7070 c -0.0148,0.0517 -0.0616,0.0887 -0.1182 0.0887c -0.0542,-0.0000 -0.1059,-0.0369 -0.1207 -0.0887l -0.4976,-1.7070 c 0.0000,-0.0690 0.0591,-0.1256 0.1281 -0.1256c 0.0567,0.0000 0.1035,0.0369 0.1182 0.0887l 0.0961,0.3301 l 0.5493,0.0000 l 0.0961,-0.3301 c 0.0148,-0.0517 0.0640,-0.0887 0.1207 -0.0887c 0.0690,0.0000 0.1281,0.0567 0.1281 0.1256ZM 240.6183,264.8126 ZM 240.1995,265.3545 l -0.4015,-0.0000 l 0.2020,0.6848 Z"/></g><g stroke-linejoin="miter" stroke-opacity="1.0" fill-opacity="1.0" stroke="rgb(0,0,0)" fill-rule="evenodd" stroke-width="0.0" fill="rgb(0,0,0)" stroke-linecap="butt" stroke-miterlimit="10.0"><path d="M 219.0663,253.1157 ZM 218.8183,252.9375 l -1.5551,0.8978 l -0.4261,-0.7381 c -0.1022,-0.1771 -0.0400,-0.4092 0.1349 -0.5102l 0.3840,-0.2217 c 0.1771,-0.1022 0.4092,-0.0400 0.5115 0.1370l 0.3017,0.5226 l 0.5248,-0.3030 c 0.0597,-0.0345 0.1371,-0.0137 0.1716 0.0460c 0.0345,0.0597 0.0125,0.1350 -0.0472 0.1695ZM 218.8183,252.9375 ZM 217.9537,253.1494 l -0.3017,-0.5226 c -0.0333,-0.0576 -0.1119,-0.0805 -0.1716 -0.0460l -0.3840,0.2217 c -0.0576,0.0333 -0.0759,0.1149 -0.0438 0.1704l 0.3017,0.5226 l 0.5994,-0.3461 Z"/></g><g stroke-linejoin="miter" stroke-opacity="1.0" fill-opacity="1.0" stroke="rgb(0,0,0)" fill-rule="evenodd" stroke-width="0.0" fill="rgb(0,0,0)" stroke-linecap="butt" stroke-miterlimit="10.0"><path d="M 218.1746,228.4287 ZM 218.2050,228.1249 l -1.4485,-0.8363 c -0.0576,-0.0333 -0.0796,-0.1085 -0.0451 -0.1682c 0.0345,-0.0597 0.1119,-0.0805 0.1695 -0.0472l 0.6165,0.3559 l 0.3646,-0.6314 l -0.6165,-0.3559 c -0.0576,-0.0333 -0.0796,-0.1085 -0.0451 -0.1682c 0.0345,-0.0597 0.1119,-0.0805 0.1695 -0.0472l 1.4485,0.8363 c 0.0597,0.0345 0.0805,0.1119 0.0460 0.1716c -0.0345,0.0597 -0.1106,0.0783 -0.1704 0.0438l -0.6165,-0.3559 l -0.3646,0.6314 l 0.6165,0.3559 c 0.0597,0.0345 0.0805,0.1119 0.0460 0.1716c -0.0345,0.0597 -0.1106,0.0783 -0.1704 0.0438Z"/></g><g stroke-linejoin="miter" stroke-opacity="1.0" fill-opacity="1.0" stroke="rgb(0,0,0)" fill-rule="evenodd" stroke-width="0.0" fill="rgb(0,0,0)" stroke-linecap="butt" stroke-miterlimit="10.0"><path d="M 239.1108,215.3130 ZM 239.3817,215.1874 l 0.5000,-1.7070 c 0.0148,-0.0517 0.0616,-0.0887 0.1182 -0.0887c 0.0542,-0.0000 0.1059,0.0369 0.1207 0.0887l 0.4976,1.7070 c 0.0000,0.0690 -0.0591,0.1256 -0.1281 0.1256c -0.0567,-0.0000 -0.1035,-0.0369 -0.1182 -0.0887l -0.0961,-0.3301 h -0.5493 l -0.0961,0.3301 c -0.0148,0.0517 -0.0640,0.0887 -0.1207 0.0887c -0.0690,-0.0000 -0.1281,-0.0567 -0.1281 -0.1256ZM 239.3817,215.1874 ZM 239.8005,214.6455 h 0.4015 l -0.2020,-0.6848 Z"/></g><g stroke-linejoin="miter" stroke-opacity="1.0" fill-opacity="1.0" stroke="rgb(0,0,0)" fill-rule="evenodd" stroke-width="0.0" fill="rgb(0,0,0)" stroke-linecap="butt" stroke-miterlimit="10.0"><path d="M 260.9337,226.8843 ZM 261.1817,227.0625 l 1.5551,-0.8978 l 0.4261,0.7381 c 0.1022,0.1771 0.0400,0.4092 -0.1370 0.5115l -0.1109,0.0640 c -0.1749,0.1010 -0.4105,0.0379 -0.5115 -0.1370l -0.0714,-0.1237 l -0.4923,0.8616 c -0.0121,0.0184 -0.0255,0.0346 -0.0447 0.0457c -0.0597,0.0345 -0.1371,0.0137 -0.1716 -0.0460c -0.0234,-0.0405 -0.0218,-0.0870 -0.0009 -0.1247l 0.5642,-0.9885 l -0.0850,-0.1472 l -0.7957,0.4594 c -0.0597,0.0345 -0.1371,0.0137 -0.1716 -0.0460c -0.0345,-0.0597 -0.0125,-0.1350 0.0472 -0.1695ZM 261.1817,227.0625 ZM 262.3172,226.6942 l 0.3017,0.5226 c 0.0333,0.0576 0.1140,0.0792 0.1716 0.0460l 0.1109,-0.0640 c 0.0597,-0.0345 0.0792,-0.1140 0.0460 -0.1716l -0.3017,-0.5226 l -0.3285,0.1897 Z"/></g><g stroke-linejoin="round" stroke-opacity="1.0" fill-opacity="0.2222222222222222" stroke="rgb(0,0,0)" stroke-width="1.7867613294760314" fill="rgb(255,255,255)" stroke-linecap="butt" stroke-miterlimit="10.0"><path d="M 240.0000,210.7812 l 16.8695,48.6980 l -16.8695,-9.7396 l -16.8695,9.7396 Z"/></g><g stroke-linejoin="miter" stroke-opacity="1.0" fill-opacity="0.0" stroke="rgb(0,0,0)" stroke-width="1.7867613294760314" fill="rgb(0,0,0)" stroke-linecap="butt" stroke-miterlimit="10.0"><path d="M 207.4660,258.7835 l 32.5340,18.7835 l 32.5340,-18.7835 l -0.0000,-37.5671 l -32.5340,-18.7835 l -32.5340,18.7835 Z"/></g><g stroke-linejoin="miter" stroke-opacity="1.0" fill-opacity="0.0" stroke="rgb(0,0,0)" stroke-width="1.7867613294760314" fill="rgb(0,0,0)" stroke-linecap="butt" stroke-miterlimit="10.0"><path d="M 214.6958,254.6094 l 25.3042,14.6094 l 25.3042,-14.6094 l -0.0000,-29.2188 l -25.3042,-14.6094 l -25.3042,14.6094 Z"/></g><g stroke-linejoin="round" stroke-opacity="1.0" fill-opacity="0.2222222222222222" stroke="rgb(0,0,0)" stroke-width="1.7867613294760314" fill="rgb(0,0,0)" stroke-linecap="butt" stroke-miterlimit="10.0"><path d="M 240.0000,269.2188 l -16.8695,-48.6980 l 16.8695,9.7396 l 16.8695,-9.7396 Z"/></g><g stroke-linejoin="miter" stroke-opacity="1.0" fill-opacity="0.0" stroke="rgb(0,0,0)" stroke-width="1.7867613294760314" fill="rgb(0,0,0)" stroke-linecap="butt" stroke-miterlimit="10.0"><path d="M 272.5340,221.2165 l -32.5340,-18.7835 l -32.5340,18.7835 l 0.0000,37.5671 l 32.5340,18.7835 l 32.5340,-18.7835 Z"/></g><g stroke-linejoin="miter" stroke-opacity="1.0" fill-opacity="0.0" stroke="rgb(0,0,0)" stroke-width="1.7867613294760314" fill="rgb(0,0,0)" stroke-linecap="butt" stroke-miterlimit="10.0"><path d="M 265.3042,225.3906 l -25.3042,-14.6094 l -25.3042,14.6094 l 0.0000,29.2188 l 25.3042,14.6094 l 25.3042,-14.6094 Z"/></g><g stroke-linejoin="miter" stroke-opacity="1.0" fill-opacity="1.0" stroke="rgb(0,0,0)" fill-rule="evenodd" stroke-width="0.0" fill="rgb(0,0,0)" stroke-linecap="butt" stroke-miterlimit="10.0"><path d="M 268.0612,254.8773 ZM 268.0222,255.2680 l 1.9994,1.1544 l -0.1995,0.3456 l -0.6747,0.0602 l 0.2868,0.6117 l -0.2011,0.3483 l -1.9994,-1.1544 c -0.0768,-0.0443 -0.1035,-0.1438 -0.0591 -0.2206c 0.0443,-0.0768 0.1423,-0.1007 0.2191 -0.0564l 1.6182,0.9343 l -0.2288,-0.4905 l -0.0713,-0.0412 c -0.0768,-0.0443 -0.1035,-0.1438 -0.0607 -0.2179c 0.0443,-0.0768 0.1438,-0.1035 0.2206 -0.0591l 0.0713,0.0412 l 0.5321,-0.0475 l -1.6127,-0.9311 c -0.0768,-0.0443 -0.1035,-0.1438 -0.0591 -0.2206c 0.0443,-0.0768 0.1423,-0.1007 0.2191 -0.0564Z"/></g><g stroke-linejoin="miter" stroke-opacity="1.0" fill-opacity="1.0" stroke="rgb(0,0,0)" fill-rule="evenodd" stroke-width="0.0" fill="rgb(0,0,0)" stroke-linecap="butt" stroke-miterlimit="10.0"><path d="M 241.1433,271.7404 ZM 240.7949,271.9019 l -0.6429,2.1947 c -0.0190,0.0665 -0.0792,0.1140 -0.1520 0.1140c -0.0697,-0.0000 -0.1362,-0.0475 -0.1552 -0.1140l -0.6397,-2.1947 c 0.0000,-0.0887 0.0760,-0.1615 0.1647 -0.1615c 0.0728,0.0000 0.1330,0.0475 0.1520 0.1140l 0.1235,0.4244 l 0.7062,0.0000 l 0.1235,-0.4244 c 0.0190,-0.0665 0.0823,-0.1140 0.1552 -0.1140c 0.0887,0.0000 0.1647,0.0728 0.1647 0.1615ZM 240.7949,271.9019 ZM 240.2565,272.5987 l -0.5162,-0.0000 l 0.2597,0.8804 Z"/></g><g stroke-linejoin="miter" stroke-opacity="1.0" fill-opacity="1.0" stroke="rgb(0,0,0)" fill-rule="evenodd" stroke-width="0.0" fill="rgb(0,0,0)" stroke-linecap="butt" stroke-miterlimit="10.0"><path d="M 213.0852,256.8631 ZM 212.7664,256.6339 l -1.9994,1.1544 l -0.5479,-0.9490 c -0.1314,-0.2276 -0.0514,-0.5262 0.1735 -0.6560l 0.4937,-0.2850 c 0.2276,-0.1314 0.5262,-0.0514 0.6576 0.1762l 0.3880,0.6720 l 0.6747,-0.3895 c 0.0768,-0.0443 0.1763,-0.0177 0.2206 0.0591c 0.0443,0.0768 0.0161,0.1736 -0.0607 0.2179ZM 212.7664,256.6339 ZM 211.6548,256.9064 l -0.3880,-0.6720 c -0.0428,-0.0741 -0.1438,-0.1035 -0.2206 -0.0591l -0.4937,0.2850 c -0.0741,0.0428 -0.0975,0.1477 -0.0564 0.2191l 0.3880,0.6720 l 0.7707,-0.4450 Z"/></g><g stroke-linejoin="miter" stroke-opacity="1.0" fill-opacity="1.0" stroke="rgb(0,0,0)" fill-rule="evenodd" stroke-width="0.0" fill="rgb(0,0,0)" stroke-linecap="butt" stroke-miterlimit="10.0"><path d="M 211.9388,225.1227 ZM 211.9778,224.7320 l -1.8623,-1.0752 c -0.0741,-0.0428 -0.1023,-0.1395 -0.0580 -0.2163c 0.0443,-0.0768 0.1438,-0.1035 0.2179 -0.0607l 0.7926,0.4576 l 0.4687,-0.8118 l -0.7926,-0.4576 c -0.0741,-0.0428 -0.1023,-0.1395 -0.0580 -0.2163c 0.0443,-0.0768 0.1438,-0.1035 0.2179 -0.0607l 1.8623,1.0752 c 0.0768,0.0443 0.1035,0.1438 0.0591 0.2206c -0.0443,0.0768 -0.1423,0.1007 -0.2191 0.0564l -0.7926,-0.4576 l -0.4687,0.8118 l 0.7926,0.4576 c 0.0768,0.0443 0.1035,0.1438 0.0591 0.2206c -0.0443,0.0768 -0.1423,0.1007 -0.2191 0.0564Z"/></g><g stroke-linejoin="miter" stroke-opacity="1.0" fill-opacity="1.0" stroke="rgb(0,0,0)" fill-rule="evenodd" stroke-width="0.0" fill="rgb(0,0,0)" stroke-linecap="butt" stroke-miterlimit="10.0"><path d="M 238.8567,208.2596 ZM 239.2051,208.0981 l 0.6429,-2.1947 c 0.0190,-0.0665 0.0792,-0.1140 0.1520 -0.1140c 0.0697,-0.0000 0.1362,0.0475 0.1552 0.1140l 0.6397,2.1947 c 0.0000,0.0887 -0.0760,0.1615 -0.1647 0.1615c -0.0728,-0.0000 -0.1330,-0.0475 -0.1520 -0.1140l -0.1235,-0.4244 h -0.7062 l -0.1235,0.4244 c -0.0190,0.0665 -0.0823,0.1140 -0.1552 0.1140c -0.0887,-0.0000 -0.1647,-0.0728 -0.1647 -0.1615ZM 239.2051,208.0981 ZM 239.7435,207.4013 h 0.5162 l -0.2597,-0.8804 Z"/></g><g stroke-linejoin="miter" stroke-opacity="1.0" fill-opacity="1.0" stroke="rgb(0,0,0)" fill-rule="evenodd" stroke-width="0.0" fill="rgb(0,0,0)" stroke-linecap="butt" stroke-miterlimit="10.0"><path d="M 266.9148,223.1369 ZM 267.2336,223.3661 l 1.9994,-1.1544 l 0.5479,0.9490 c 0.1314,0.2276 0.0514,0.5262 -0.1762 0.6576l -0.1426,0.0823 c -0.2249,0.1298 -0.5277,0.0487 -0.6576 -0.1762l -0.0918,-0.1591 l -0.6330,1.1078 c -0.0156,0.0236 -0.0328,0.0445 -0.0575 0.0588c -0.0768,0.0443 -0.1763,0.0177 -0.2206 -0.0591c -0.0301,-0.0521 -0.0280,-0.1118 -0.0011 -0.1603l 0.7254,-1.2709 l -0.1093,-0.1892 l -1.0230,0.5906 c -0.0768,0.0443 -0.1763,0.0177 -0.2206 -0.0591c -0.0443,-0.0768 -0.0161,-0.1736 0.0607 -0.2179ZM 267.2336,223.3661 ZM 268.6936,222.8925 l 0.3880,0.6720 c 0.0428,0.0741 0.1466,0.1019 0.2206 0.0591l 0.1426,-0.0823 c 0.0768,-0.0443 0.1019,-0.1466 0.0591 -0.2206l -0.3880,-0.6720 l -0.4224,0.2439 Z"/></g><g stroke-linejoin="round" stroke-opacity="1.0" fill-opacity="0.2222222222222222" stroke="rgb(0,0,0)" stroke-width="1.7867613294760314" fill="rgb(255,255,255)" stroke-linecap="butt" stroke-miterlimit="10.0"><path d="M 240.0000,202.4329 l 21.6894,62.6118 l -21.6894,-12.5224 l -21.6894,12.5224 Z"/></g><g stroke-linejoin="miter" stroke-opacity="1.0" fill-opacity="0.0" stroke="rgb(0,0,0)" stroke-width="1.7867613294760314" fill="rgb(0,0,0)" stroke-linecap="butt" stroke-miterlimit="10.0"><path d="M 198.1705,264.1503 l 41.8295,24.1503 l 41.8295,-24.1503 l -0.0000,-48.3005 l -41.8295,-24.1503 l -41.8295,24.1503 Z"/></g><g stroke-linejoin="miter" stroke-opacity="1.0" fill-opacity="0.0" stroke="rgb(0,0,0)" stroke-width="1.7867613294760314" fill="rgb(0,0,0)" stroke-linecap="butt" stroke-miterlimit="10.0"><path d="M 207.4660,258.7835 l 32.5340,18.7835 l 32.5340,-18.7835 l -0.0000,-37.5671 l -32.5340,-18.7835 l -32.5340,18.7835 Z"/></g><g stroke-linejoin="round" stroke-opacity="1.0" fill-opacity="0.2222222222222222" stroke="rgb(0,0,0)" stroke-width="1.7867613294760314" fill="rgb(0,0,0)" stroke-linecap="butt" stroke-miterlimit="10.0"><path d="M 240.0000,277.5671 l -21.6894,-62.6118 l 21.6894,12.5224 l 21.6894,-12.5224 Z"/></g><g stroke-linejoin="miter" stroke-opacity="1.0" fill-opacity="0.0" stroke="rgb(0,0,0)" stroke-width="1.7867613294760314" fill="rgb(0,0,0)" stroke-linecap="butt" stroke-miterlimit="10.0"><path d="M 281.8295,215.8497 l -41.8295,-24.1503 l -41.8295,24.1503 l 0.0000,48.3005 l 41.8295,24.1503 l 41.8295,-24.1503 Z"/></g><g stroke-linejoin="miter" stroke-opacity="1.0" fill-opacity="0.0" stroke="rgb(0,0,0)" stroke-width="1.7867613294760314" fill="rgb(0,0,0)" stroke-linecap="butt" stroke-miterlimit="10.0"><path d="M 272.5340,221.2165 l -32.5340,-18.7835 l -32.5340,18.7835 l 0.0000,37.5671 l 32.5340,18.7835 l 32.5340,-18.7835 Z"/></g><g stroke-linejoin="miter" stroke-opacity="1.0" fill-opacity="1.0" stroke="rgb(0,0,0)" fill-rule="evenodd" stroke-width="0.0" fill="rgb(0,0,0)" stroke-linecap="butt" stroke-miterlimit="10.0"><path d="M 276.0787,259.1280 ZM 276.0285,259.6303 l 2.5707,1.4842 l -0.2565,0.4443 l -0.8675,0.0775 l 0.3687,0.7865 l -0.2586,0.4478 l -2.5707,-1.4842 c -0.0987,-0.0570 -0.1330,-0.1849 -0.0760 -0.2837c 0.0570,-0.0987 0.1829,-0.1295 0.2816 -0.0725l 2.0805,1.2012 l -0.2942,-0.6306 l -0.0917,-0.0529 c -0.0987,-0.0570 -0.1330,-0.1849 -0.0780 -0.2801c 0.0570,-0.0987 0.1849,-0.1330 0.2837 -0.0760l 0.0917,0.0529 l 0.6841,-0.0611 l -2.0735,-1.1971 c -0.0987,-0.0570 -0.1330,-0.1849 -0.0760 -0.2837c 0.0570,-0.0987 0.1829,-0.1295 0.2816 -0.0725Z"/></g><g stroke-linejoin="miter" stroke-opacity="1.0" fill-opacity="1.0" stroke="rgb(0,0,0)" fill-rule="evenodd" stroke-width="0.0" fill="rgb(0,0,0)" stroke-linecap="butt" stroke-miterlimit="10.0"><path d="M 241.4699,280.8091 ZM 241.0220,281.0168 l -0.8266,2.8218 c -0.0244,0.0855 -0.1018,0.1466 -0.1954 0.1466c -0.0896,-0.0000 -0.1751,-0.0611 -0.1995 -0.1466l -0.8225,-2.8218 c 0.0000,-0.1140 0.0977,-0.2077 0.2117 -0.2077c 0.0937,0.0000 0.1710,0.0611 0.1954 0.1466l 0.1588,0.5456 l 0.9080,0.0000 l 0.1588,-0.5456 c 0.0244,-0.0855 0.1059,-0.1466 0.1995 -0.1466c 0.1140,0.0000 0.2117,0.0937 0.2117 0.2077ZM 241.0220,281.0168 ZM 240.3298,281.9126 l -0.6637,-0.0000 l 0.3339,1.1320 Z"/></g><g stroke-linejoin="miter" stroke-opacity="1.0" fill-opacity="1.0" stroke="rgb(0,0,0)" fill-rule="evenodd" stroke-width="0.0" fill="rgb(0,0,0)" stroke-linecap="butt" stroke-miterlimit="10.0"><path d="M 205.3953,261.6811 ZM 204.9854,261.3864 l -2.5707,1.4842 l -0.7044,-1.2201 c -0.1690,-0.2927 -0.0661,-0.6765 0.2230 -0.8434l 0.6347,-0.3665 c 0.2927,-0.1690 0.6765,-0.0661 0.8455 0.2265l 0.4988,0.8640 l 0.8675,-0.5008 c 0.0987,-0.0570 0.2267,-0.0227 0.2837 0.0760c 0.0570,0.0987 0.0207,0.2231 -0.0780 0.2801ZM 204.9854,261.3864 ZM 203.5561,261.7367 l -0.4988,-0.8640 c -0.0550,-0.0952 -0.1849,-0.1330 -0.2837 -0.0760l -0.6347,0.3665 c -0.0952,0.0550 -0.1254,0.1900 -0.0725 0.2816l 0.4988,0.8640 l 0.9909,-0.5721 Z"/></g><g stroke-linejoin="miter" stroke-opacity="1.0" fill-opacity="1.0" stroke="rgb(0,0,0)" fill-rule="evenodd" stroke-width="0.0" fill="rgb(0,0,0)" stroke-linecap="butt" stroke-miterlimit="10.0"><path d="M 203.9213,220.8720 ZM 203.9715,220.3697 l -2.3944,-1.3824 c -0.0952,-0.0550 -0.1315,-0.1794 -0.0745 -0.2781c 0.0570,-0.0987 0.1849,-0.1330 0.2801 -0.0780l 1.0191,0.5884 l 0.6026,-1.0438 l -1.0191,-0.5884 c -0.0952,-0.0550 -0.1315,-0.1794 -0.0745 -0.2781c 0.0570,-0.0987 0.1849,-0.1330 0.2801 -0.0780l 2.3944,1.3824 c 0.0987,0.0570 0.1330,0.1849 0.0760 0.2837c -0.0570,0.0987 -0.1829,0.1295 -0.2816 0.0725l -1.0191,-0.5884 l -0.6026,1.0438 l 1.0191,0.5884 c 0.0987,0.0570 0.1330,0.1849 0.0760 0.2837c -0.0570,0.0987 -0.1829,0.1295 -0.2816 0.0725Z"/></g><g stroke-linejoin="miter" stroke-opacity="1.0" fill-opacity="1.0" stroke="rgb(0,0,0)" fill-rule="evenodd" stroke-width="0.0" fill="rgb(0,0,0)" stroke-linecap="butt" stroke-miterlimit="10.0"><path d="M 238.5301,199.1909 ZM 238.9780,198.9832 l 0.8266,-2.8218 c 0.0244,-0.0855 0.1018,-0.1466 0.1954 -0.1466c 0.0896,-0.0000 0.1751,0.0611 0.1995 0.1466l 0.8225,2.8218 c 0.0000,0.1140 -0.0977,0.2077 -0.2117 0.2077c -0.0937,-0.0000 -0.1710,-0.0611 -0.1954 -0.1466l -0.1588,-0.5456 h -0.9080 l -0.1588,0.5456 c -0.0244,0.0855 -0.1059,0.1466 -0.1995 0.1466c -0.1140,-0.0000 -0.2117,-0.0937 -0.2117 -0.2077ZM 238.9780,198.9832 ZM 239.6702,198.0874 h 0.6637 l -0.3339,-1.1320 Z"/></g><g stroke-linejoin="miter" stroke-opacity="1.0" fill-opacity="1.0" stroke="rgb(0,0,0)" fill-rule="evenodd" stroke-width="0.0" fill="rgb(0,0,0)" stroke-linecap="butt" stroke-miterlimit="10.0"><path d="M 274.6047,218.3189 ZM 275.0146,218.6136 l 2.5707,-1.4842 l 0.7044,1.2201 c 0.1690,0.2927 0.0661,0.6765 -0.2265 0.8455l -0.1834,0.1059 c -0.2892,0.1669 -0.6785,0.0626 -0.8455 -0.2265l -0.1181,-0.2045 l -0.8139,1.4244 c -0.0201,0.0304 -0.0422,0.0573 -0.0739 0.0756c -0.0987,0.0570 -0.2267,0.0227 -0.2837 -0.0760c -0.0387,-0.0670 -0.0360,-0.1438 -0.0014 -0.2061l 0.9326,-1.6340 l -0.1405,-0.2433 l -1.3153,0.7594 c -0.0987,0.0570 -0.2267,0.0227 -0.2837 -0.0760c -0.0570,-0.0987 -0.0207,-0.2231 0.0780 -0.2801ZM 275.0146,218.6136 ZM 276.8917,218.0047 l 0.4988,0.8640 c 0.0550,0.0952 0.1885,0.1310 0.2837 0.0760l 0.1834,-0.1059 c 0.0987,-0.0570 0.1310,-0.1885 0.0760 -0.2837l -0.4988,-0.8640 l -0.5431,0.3135 Z"/></g><g stroke-linejoin="round" stroke-opacity="1.0" fill-opacity="0.2222222222222222" stroke="rgb(0,0,0)" stroke-width="1.7867613294760314" fill="rgb(255,255,255)" stroke-linecap="butt" stroke-miterlimit="10.0"><path d="M 240.0000,191.6995 l 27.8863,80.5009 l -27.8863,-16.1002 l -27.8863,16.1002 Z"/></g><g stroke-linejoin="miter" stroke-opacity="1.0" fill-opacity="0.0" stroke="rgb(0,0,0)" stroke-width="1.7867613294760314" fill="rgb(0,0,0)" stroke-linecap="butt" stroke-miterlimit="10.0"><path d="M 186.2193,271.0503 l 53.7807,31.0503 l 53.7807,-31.0503 l -0.0000,-62.1007 l -53.7807,-31.0503 l -53.7807,31.0503 Z"/></g><g stroke-linejoin="miter" stroke-opacity="1.0" fill-opacity="0.0" stroke="rgb(0,0,0)" stroke-width="1.7867613294760314" fill="rgb(0,0,0)" stroke-linecap="butt" stroke-miterlimit="10.0"><path d="M 198.1705,264.1503 l 41.8295,24.1503 l 41.8295,-24.1503 l -0.0000,-48.3005 l -41.8295,-24.1503 l -41.8295,24.1503 Z"/></g><g stroke-linejoin="round" stroke-opacity="1.0" fill-opacity="0.2222222222222222" stroke="rgb(0,0,0)" stroke-width="1.7867613294760314" fill="rgb(0,0,0)" stroke-linecap="butt" stroke-miterlimit="10.0"><path d="M 240.0000,288.3005 l -27.8863,-80.5009 l 27.8863,16.1002 l 27.8863,-16.1002 Z"/></g><g stroke-linejoin="miter" stroke-opacity="1.0" fill-opacity="0.0" stroke="rgb(0,0,0)" stroke-width="1.7867613294760314" fill="rgb(0,0,0)" stroke-linecap="butt" stroke-miterlimit="10.0"><path d="M 293.7807,208.9497 l -53.7807,-31.0503 l -53.7807,31.0503 l 0.0000,62.1007 l 53.7807,31.0503 l 53.7807,-31.0503 Z"/></g><g stroke-linejoin="miter" stroke-opacity="1.0" fill-opacity="0.0" stroke="rgb(0,0,0)" stroke-width="1.7867613294760314" fill="rgb(0,0,0)" stroke-linecap="butt" stroke-miterlimit="10.0"><path d="M 281.8295,215.8497 l -41.8295,-24.1503 l -41.8295,24.1503 l 0.0000,48.3005 l 41.8295,24.1503 l 41.8295,-24.1503 Z"/></g><g stroke-linejoin="miter" stroke-opacity="1.0" fill-opacity="1.0" stroke="rgb(0,0,0)" fill-rule="evenodd" stroke-width="0.0" fill="rgb(0,0,0)" stroke-linecap="butt" stroke-miterlimit="10.0"><path d="M 286.3869,264.5932 ZM 286.3224,265.2390 l 3.3052,1.9083 l -0.3298,0.5713 l -1.1154,0.0996 l 0.4741,1.0112 l -0.3324,0.5758 l -3.3052,-1.9083 c -0.1269,-0.0733 -0.1710,-0.2378 -0.0977 -0.3647c 0.0733,-0.1269 0.2352,-0.1665 0.3621 -0.0932l 2.6750,1.5444 l -0.3782,-0.8108 l -0.1179,-0.0681 c -0.1269,-0.0733 -0.1710,-0.2378 -0.1003 -0.3602c 0.0733,-0.1269 0.2378,-0.1710 0.3647 -0.0977l 0.1179,0.0681 l 0.8796,-0.0786 l -2.6659,-1.5392 c -0.1269,-0.0733 -0.1710,-0.2378 -0.0977 -0.3647c 0.0733,-0.1269 0.2352,-0.1665 0.3621 -0.0932Z"/></g><g stroke-linejoin="miter" stroke-opacity="1.0" fill-opacity="1.0" stroke="rgb(0,0,0)" fill-rule="evenodd" stroke-width="0.0" fill="rgb(0,0,0)" stroke-linecap="butt" stroke-miterlimit="10.0"><path d="M 241.8899,292.4688 ZM 241.3141,292.7358 l -1.0628,3.6280 c -0.0314,0.1099 -0.1309,0.1885 -0.2513 0.1885c -0.1152,-0.0000 -0.2251,-0.0785 -0.2565 -0.1885l -1.0575,-3.6280 c 0.0000,-0.1466 0.1256,-0.2670 0.2722 -0.2670c 0.1204,0.0000 0.2199,0.0785 0.2513 0.1885l 0.2042,0.7015 l 1.1675,0.0000 l 0.2042,-0.7015 c 0.0314,-0.1099 0.1361,-0.1885 0.2565 -0.1885c 0.1466,0.0000 0.2722,0.1204 0.2722 0.2670ZM 241.3141,292.7358 ZM 240.4241,293.8876 l -0.8533,-0.0000 l 0.4293,1.4554 Z"/></g><g stroke-linejoin="miter" stroke-opacity="1.0" fill-opacity="1.0" stroke="rgb(0,0,0)" fill-rule="evenodd" stroke-width="0.0" fill="rgb(0,0,0)" stroke-linecap="butt" stroke-miterlimit="10.0"><path d="M 195.5082,267.8757 ZM 194.9812,267.4968 l -3.3052,1.9083 l -0.9057,-1.5687 c -0.2173,-0.3763 -0.0850,-0.8698 0.2867 -1.0844l 0.8161,-0.4712 c 0.3763,-0.2173 0.8698,-0.0850 1.0870 0.2913l 0.6413,1.1108 l 1.1153,-0.6439 c 0.1269,-0.0733 0.2914,-0.0292 0.3647 0.0977c 0.0733,0.1269 0.0266,0.2869 -0.1003 0.3602ZM 194.9812,267.4968 ZM 193.1436,267.9472 l -0.6413,-1.1108 c -0.0707,-0.1224 -0.2378,-0.1710 -0.3647 -0.0977l -0.8161,0.4712 c -0.1224,0.0707 -0.1613,0.2442 -0.0932 0.3621l 0.6413,1.1108 l 1.2740,-0.7356 Z"/></g><g stroke-linejoin="miter" stroke-opacity="1.0" fill-opacity="1.0" stroke="rgb(0,0,0)" fill-rule="evenodd" stroke-width="0.0" fill="rgb(0,0,0)" stroke-linecap="butt" stroke-miterlimit="10.0"><path d="M 193.6131,215.4068 ZM 193.6776,214.7610 l -3.0785,-1.7774 c -0.1224,-0.0707 -0.1691,-0.2306 -0.0958 -0.3576c 0.0733,-0.1269 0.2378,-0.1710 0.3602 -0.1003l 1.3103,0.7565 l 0.7748,-1.3420 l -1.3103,-0.7565 c -0.1224,-0.0707 -0.1691,-0.2306 -0.0958 -0.3576c 0.0733,-0.1269 0.2378,-0.1710 0.3602 -0.1003l 3.0785,1.7774 c 0.1269,0.0733 0.1710,0.2378 0.0977 0.3647c -0.0733,0.1269 -0.2352,0.1665 -0.3621 0.0932l -1.3103,-0.7565 l -0.7748,1.3420 l 1.3103,0.7565 c 0.1269,0.0733 0.1710,0.2378 0.0977 0.3647c -0.0733,0.1269 -0.2352,0.1665 -0.3621 0.0932Z"/></g><g stroke-linejoin="miter" stroke-opacity="1.0" fill-opacity="1.0" stroke="rgb(0,0,0)" fill-rule="evenodd" stroke-width="0.0" fill="rgb(0,0,0)" stroke-linecap="butt" stroke-miterlimit="10.0"><path d="M 238.1101,187.5312 ZM 238.6859,187.2642 l 1.0628,-3.6280 c 0.0314,-0.1099 0.1309,-0.1885 0.2513 -0.1885c 0.1152,-0.0000 0.2251,0.0785 0.2565 0.1885l 1.0575,3.6280 c 0.0000,0.1466 -0.1256,0.2670 -0.2722 0.2670c -0.1204,-0.0000 -0.2199,-0.0785 -0.2513 -0.1885l -0.2042,-0.7015 h -1.1675 l -0.2042,0.7015 c -0.0314,0.1099 -0.1361,0.1885 -0.2565 0.1885c -0.1466,-0.0000 -0.2722,-0.1204 -0.2722 -0.2670ZM 238.6859,187.2642 ZM 239.5759,186.1124 h 0.8533 l -0.4293,-1.4554 Z"/></g><g stroke-linejoin="miter" stroke-opacity="1.0" fill-opacity="1.0" stroke="rgb(0,0,0)" fill-rule="evenodd" stroke-width="0.0" fill="rgb(0,0,0)" stroke-linecap="butt" stroke-miterlimit="10.0"><path d="M 284.4918,212.1243 ZM 285.0188,212.5032 l 3.3052,-1.9083 l 0.9057,1.5687 c 0.2173,0.3763 0.0850,0.8698 -0.2913 1.0870l -0.2358,0.1361 c -0.3718,0.2146 -0.8724,0.0805 -1.0870 -0.2913l -0.1518,-0.2630 l -1.0464,1.8313 c -0.0258,0.0391 -0.0542,0.0736 -0.0950 0.0972c -0.1269,0.0733 -0.2914,0.0292 -0.3647 -0.0977c -0.0497,-0.0861 -0.0463,-0.1849 -0.0018 -0.2649l 1.1991,-2.1008 l -0.1806,-0.3128 l -1.6911,0.9764 c -0.1269,0.0733 -0.2914,0.0292 -0.3647 -0.0977c -0.0733,-0.1269 -0.0266,-0.2869 0.1003 -0.3602ZM 285.0188,212.5032 ZM 287.4322,211.7203 l 0.6413,1.1108 c 0.0707,0.1224 0.2423,0.1684 0.3647 0.0977l 0.2358,-0.1361 c 0.1269,-0.0733 0.1684,-0.2423 0.0977 -0.3647l -0.6413,-1.1108 l -0.6982,0.4031 Z"/></g><g stroke-linejoin="round" stroke-opacity="1.0" fill-opacity="0.2222222222222222" stroke="rgb(0,0,0)" stroke-width="1.7867613294760314" fill="rgb(255,255,255)" stroke-linecap="butt" stroke-miterlimit="10.0"><path d="M 240.0000,177.8993 l 35.8538,103.5011 l -35.8538,-20.7002 l -35.8538,20.7002 Z"/></g><g stroke-linejoin="miter" stroke-opacity="1.0" fill-opacity="0.0" stroke="rgb(0,0,0)" stroke-width="1.7867613294760314" fill="rgb(0,0,0)" stroke-linecap="butt" stroke-miterlimit="10.0"><path d="M 170.8533,279.9219 l 69.1467,39.9219 l 69.1467,-39.9219 l -0.0000,-79.8437 l -69.1467,-39.9219 l -69.1467,39.9219 Z"/></g><g stroke-linejoin="miter" stroke-opacity="1.0" fill-opacity="0.0" stroke="rgb(0,0,0)" stroke-width="1.7867613294760314" fill="rgb(0,0,0)" stroke-linecap="butt" stroke-miterlimit="10.0"><path d="M 186.2193,271.0503 l 53.7807,31.0503 l 53.7807,-31.0503 l -0.0000,-62.1007 l -53.7807,-31.0503 l -53.7807,31.0503 Z"/></g><g stroke-linejoin="round" stroke-opacity="1.0" fill-opacity="0.2222222222222222" stroke="rgb(0,0,0)" stroke-width="1.7867613294760314" fill="rgb(0,0,0)" stroke-linecap="butt" stroke-miterlimit="10.0"><path d="M 240.0000,302.1007 l -35.8538,-103.5011 l 35.8538,20.7002 l 35.8538,-20.7002 Z"/></g><g stroke-linejoin="miter" stroke-opacity="1.0" fill-opacity="0.0" stroke="rgb(0,0,0)" stroke-width="1.7867613294760314" fill="rgb(0,0,0)" stroke-linecap="butt" stroke-miterlimit="10.0"><path d="M 309.1467,200.0781 l -69.1467,-39.9219 l -69.1467,39.9219 l 0.0000,79.8437 l 69.1467,39.9219 l 69.1467,-39.9219 Z"/></g><g stroke-linejoin="miter" stroke-opacity="1.0" fill-opacity="0.0" stroke="rgb(0,0,0)" stroke-width="1.7867613294760314" fill="rgb(0,0,0)" stroke-linecap="butt" stroke-miterlimit="10.0"><path d="M 293.7807,208.9497 l -53.7807,-31.0503 l -53.7807,31.0503 l 0.0000,62.1007 l 53.7807,31.0503 l 53.7807,-31.0503 Z"/></g><g stroke-linejoin="miter" stroke-opacity="1.0" fill-opacity="1.0" stroke="rgb(0,0,0)" fill-rule="evenodd" stroke-width="0.0" fill="rgb(0,0,0)" stroke-linecap="butt" stroke-miterlimit="10.0"><path d="M 299.6403,271.6198 ZM 299.5573,272.4501 l 4.2495,2.4535 l -0.4241,0.7345 l -1.4341,0.1280 l 0.6095,1.3001 l -0.4274,0.7403 l -4.2495,-2.4535 c -0.1632,-0.0942 -0.2199,-0.3057 -0.1257 -0.4689c 0.0942,-0.1632 0.3023,-0.2141 0.4656 -0.1198l 3.4393,1.9857 l -0.4863,-1.0424 l -0.1516,-0.0875 c -0.1632,-0.0942 -0.2199,-0.3057 -0.1290 -0.4631c 0.0942,-0.1632 0.3057,-0.2199 0.4689 -0.1257l 0.1516,0.0875 l 1.1309,-0.1010 l -3.4276,-1.9789 c -0.1632,-0.0942 -0.2199,-0.3057 -0.1257 -0.4689c 0.0942,-0.1632 0.3023,-0.2141 0.4656 -0.1198Z"/></g><g stroke-linejoin="miter" stroke-opacity="1.0" fill-opacity="1.0" stroke="rgb(0,0,0)" fill-rule="evenodd" stroke-width="0.0" fill="rgb(0,0,0)" stroke-linecap="butt" stroke-miterlimit="10.0"><path d="M 242.4299,307.4599 ZM 241.6895,307.8032 l -1.3664,4.6646 c -0.0404,0.1414 -0.1683,0.2423 -0.3231 0.2423c -0.1481,-0.0000 -0.2894,-0.1010 -0.3298 -0.2423l -1.3597,-4.6646 c 0.0000,-0.1885 0.1615,-0.3433 0.3500 -0.3433c 0.1548,0.0000 0.2827,0.1010 0.3231 0.2423l 0.2625,0.9020 l 1.5010,0.0000 l 0.2625,-0.9020 c 0.0404,-0.1414 0.1750,-0.2423 0.3298 -0.2423c 0.1885,0.0000 0.3500,0.1548 0.3500 0.3433ZM 241.6895,307.8032 ZM 240.5452,309.2840 l -1.0972,-0.0000 l 0.5519,1.8712 Z"/></g><g stroke-linejoin="miter" stroke-opacity="1.0" fill-opacity="1.0" stroke="rgb(0,0,0)" fill-rule="evenodd" stroke-width="0.0" fill="rgb(0,0,0)" stroke-linecap="butt" stroke-miterlimit="10.0"><path d="M 182.7963,275.8402 ZM 182.1187,275.3531 l -4.2495,2.4535 l -1.1645,-2.0169 c -0.2793,-0.4838 -0.1093,-1.1183 0.3687 -1.3942l 1.0493,-0.6058 c 0.4838,-0.2793 1.1183,-0.1093 1.3976 0.3745l 0.8246,1.4282 l 1.4340,-0.8279 c 0.1632,-0.0942 0.3747,-0.0376 0.4689 0.1257c 0.0942,0.1632 0.0342,0.3689 -0.1290 0.4631ZM 182.1187,275.3531 ZM 179.7560,275.9322 l -0.8246,-1.4282 c -0.0909,-0.1574 -0.3057,-0.2199 -0.4689 -0.1257l -1.0493,0.6058 c -0.1574,0.0909 -0.2073,0.3140 -0.1198 0.4656l 0.8246,1.4282 l 1.6380,-0.9457 Z"/></g><g stroke-linejoin="miter" stroke-opacity="1.0" fill-opacity="1.0" stroke="rgb(0,0,0)" fill-rule="evenodd" stroke-width="0.0" fill="rgb(0,0,0)" stroke-linecap="butt" stroke-miterlimit="10.0"><path d="M 180.3597,208.3802 ZM 180.4427,207.5499 l -3.9581,-2.2852 c -0.1574,-0.0909 -0.2174,-0.2965 -0.1232 -0.4597c 0.0942,-0.1632 0.3057,-0.2199 0.4631 -0.1290l 1.6847,0.9726 l 0.9962,-1.7255 l -1.6847,-0.9726 c -0.1574,-0.0909 -0.2174,-0.2965 -0.1232 -0.4597c 0.0942,-0.1632 0.3057,-0.2199 0.4631 -0.1290l 3.9581,2.2852 c 0.1632,0.0942 0.2199,0.3057 0.1257 0.4689c -0.0942,0.1632 -0.3023,0.2141 -0.4656 0.1198l -1.6847,-0.9726 l -0.9962,1.7255 l 1.6847,0.9726 c 0.1632,0.0942 0.2199,0.3057 0.1257 0.4689c -0.0942,0.1632 -0.3023,0.2141 -0.4656 0.1198Z"/></g><g stroke-linejoin="miter" stroke-opacity="1.0" fill-opacity="1.0" stroke="rgb(0,0,0)" fill-rule="evenodd" stroke-width="0.0" fill="rgb(0,0,0)" stroke-linecap="butt" stroke-miterlimit="10.0"><path d="M 237.5701,172.5401 ZM 238.3105,172.1968 l 1.3664,-4.6646 c 0.0404,-0.1414 0.1683,-0.2423 0.3231 -0.2423c 0.1481,-0.0000 0.2894,0.1010 0.3298 0.2423l 1.3597,4.6646 c 0.0000,0.1885 -0.1615,0.3433 -0.3500 0.3433c -0.1548,-0.0000 -0.2827,-0.1010 -0.3231 -0.2423l -0.2625,-0.9020 h -1.5010 l -0.2625,0.9020 c -0.0404,0.1414 -0.1750,0.2423 -0.3298 0.2423c -0.1885,-0.0000 -0.3500,-0.1548 -0.3500 -0.3433ZM 238.3105,172.1968 ZM 239.4548,170.7160 h 1.0972 l -0.5519,-1.8712 Z"/></g><g stroke-linejoin="miter" stroke-opacity="1.0" fill-opacity="1.0" stroke="rgb(0,0,0)" fill-rule="evenodd" stroke-width="0.0" fill="rgb(0,0,0)" stroke-linecap="butt" stroke-miterlimit="10.0"><path d="M 297.2037,204.1598 ZM 297.8813,204.6469 l 4.2495,-2.4535 l 1.1645,2.0169 c 0.2793,0.4838 0.1093,1.1183 -0.3745 1.3976l -0.3031,0.1750 c -0.4780,0.2760 -1.1216,0.1035 -1.3976 -0.3745l -0.1952,-0.3381 l -1.3454,2.3545 c -0.0332,0.0502 -0.0697,0.0947 -0.1222 0.1249c -0.1632,0.0942 -0.3747,0.0376 -0.4689 -0.1257c -0.0639,-0.1108 -0.0595,-0.2377 -0.0024 -0.3406l 1.5417,-2.7011 l -0.2322,-0.4022 l -2.1743,1.2553 c -0.1632,0.0942 -0.3747,0.0376 -0.4689 -0.1257c -0.0942,-0.1632 -0.0342,-0.3689 0.1290 -0.4631ZM 297.8813,204.6469 ZM 300.9843,203.6404 l 0.8246,1.4282 c 0.0909,0.1574 0.3115,0.2165 0.4689 0.1257l 0.3031,-0.1750 c 0.1632,-0.0942 0.2165,-0.3115 0.1257 -0.4689l -0.8246,-1.4282 l -0.8977,0.5183 Z"/></g><g stroke-linejoin="round" stroke-opacity="1.0" fill-opacity="0.2222222222222222" stroke="rgb(0,0,0)" stroke-width="1.7867613294760314" fill="rgb(255,255,255)" stroke-linecap="butt" stroke-miterlimit="10.0"><path d="M 240.0000,160.1563 l 46.0978,133.0728 l -46.0978,-26.6146 l -46.0978,26.6146 Z"/></g><g stroke-linejoin="miter" stroke-opacity="1.0" fill-opacity="0.0" stroke="rgb(0,0,0)" stroke-width="1.7867613294760314" fill="rgb(0,0,0)" stroke-linecap="butt" stroke-miterlimit="10.0"><path d="M 151.0971,291.3281 l 88.9029,51.3281 l 88.9029,-51.3281 l -0.0000,-102.6562 l -88.9029,-51.3281 l -88.9029,51.3281 Z"/></g><g stroke-linejoin="miter" stroke-opacity="1.0" fill-opacity="0.0" stroke="rgb(0,0,0)" stroke-width="1.7867613294760314" fill="rgb(0,0,0)" stroke-linecap="butt" stroke-miterlimit="10.0"><path d="M 170.8533,279.9219 l 69.1467,39.9219 l 69.1467,-39.9219 l -0.0000,-79.8437 l -69.1467,-39.9219 l -69.1467,39.9219 Z"/></g><g stroke-linejoin="round" stroke-opacity="1.0" fill-opacity="0.2222222222222222" stroke="rgb(0,0,0)" stroke-width="1.7867613294760314" fill="rgb(0,0,0)" stroke-linecap="butt" stroke-miterlimit="10.0"><path d="M 240.0000,319.8437 l -46.0978,-133.0728 l 46.0978,26.6146 l 46.0978,-26.6146 Z"/></g><g stroke-linejoin="miter" stroke-opacity="1.0" fill-opacity="0.0" stroke="rgb(0,0,0)" stroke-width="1.7867613294760314" fill="rgb(0,0,0)" stroke-linecap="butt" stroke-miterlimit="10.0"><path d="M 328.9029,188.6719 l -88.9029,-51.3281 l -88.9029,51.3281 l 0.0000,102.6562 l 88.9029,51.3281 l 88.9029,-51.3281 Z"/></g><g stroke-linejoin="miter" stroke-opacity="1.0" fill-opacity="0.0" stroke="rgb(0,0,0)" stroke-width="1.7867613294760314" fill="rgb(0,0,0)" stroke-linecap="butt" stroke-miterlimit="10.0"><path d="M 309.1467,200.0781 l -69.1467,-39.9219 l -69.1467,39.9219 l 0.0000,79.8437 l 69.1467,39.9219 l 69.1467,-39.9219 Z"/></g><g stroke-linejoin="miter" stroke-opacity="1.0" fill-opacity="1.0" stroke="rgb(0,0,0)" fill-rule="evenodd" stroke-width="0.0" fill="rgb(0,0,0)" stroke-linecap="butt" stroke-miterlimit="10.0"><path d="M 316.6804,280.6540 ZM 316.5737,281.7216 l 5.4637,3.1545 l -0.5452,0.9443 l -1.8438,0.1646 l 0.7837,1.6716 l -0.5495,0.9518 l -5.4637,-3.1545 c -0.2099,-0.1212 -0.2827,-0.3931 -0.1616 -0.6029c 0.1212,-0.2099 0.3887,-0.2752 0.5986 -0.1541l 4.4219,2.5530 l -0.6252,-1.3403 l -0.1949,-0.1125 c -0.2099,-0.1212 -0.2827,-0.3931 -0.1659 -0.5954c 0.1212,-0.2099 0.3931,-0.2827 0.6029 -0.1616l 0.1949,0.1125 l 1.4540,-0.1299 l -4.4069,-2.5443 c -0.2099,-0.1212 -0.2827,-0.3931 -0.1616 -0.6029c 0.1212,-0.2099 0.3887,-0.2752 0.5986 -0.1541Z"/></g><g stroke-linejoin="miter" stroke-opacity="1.0" fill-opacity="1.0" stroke="rgb(0,0,0)" fill-rule="evenodd" stroke-width="0.0" fill="rgb(0,0,0)" stroke-linecap="butt" stroke-miterlimit="10.0"><path d="M 243.1242,326.7342 ZM 242.1722,327.1755 l -1.7568,5.9974 c -0.0519,0.1817 -0.2164,0.3116 -0.4154 0.3116c -0.1904,-0.0000 -0.3721,-0.1298 -0.4241 -0.3116l -1.7481,-5.9974 c 0.0000,-0.2423 0.2077,-0.4414 0.4500 -0.4414c 0.1990,0.0000 0.3635,0.1298 0.4154 0.3116l 0.3375,1.1597 l 1.9299,0.0000 l 0.3375,-1.1597 c 0.0519,-0.1817 0.2250,-0.3116 0.4241 -0.3116c 0.2423,0.0000 0.4500,0.1990 0.4500 0.4414ZM 242.1722,327.1755 ZM 240.7010,329.0795 l -1.4106,-0.0000 l 0.7096,2.4059 Z"/></g><g stroke-linejoin="miter" stroke-opacity="1.0" fill-opacity="1.0" stroke="rgb(0,0,0)" fill-rule="evenodd" stroke-width="0.0" fill="rgb(0,0,0)" stroke-linecap="butt" stroke-miterlimit="10.0"><path d="M 166.4524,286.0802 ZM 165.5812,285.4540 l -5.4637,3.1545 l -1.4972,-2.5932 c -0.3591,-0.6221 -0.1406,-1.4378 0.4740 -1.7926l 1.3491,-0.7789 c 0.6221,-0.3591 1.4378,-0.1406 1.7969 0.4815l 1.0601,1.8362 l 1.8437,-1.0645 c 0.2099,-0.1212 0.4818,-0.0483 0.6029 0.1616c 0.1212,0.2099 0.0440,0.4743 -0.1659 0.5954ZM 165.5812,285.4540 ZM 162.5435,286.1985 l -1.0601,-1.8362 c -0.1168,-0.2024 -0.3931,-0.2827 -0.6029 -0.1616l -1.3491,0.7789 c -0.2024,0.1168 -0.2666,0.4037 -0.1541 0.5986l 1.0601,1.8362 l 2.1060,-1.2159 Z"/></g><g stroke-linejoin="miter" stroke-opacity="1.0" fill-opacity="1.0" stroke="rgb(0,0,0)" fill-rule="evenodd" stroke-width="0.0" fill="rgb(0,0,0)" stroke-linecap="butt" stroke-miterlimit="10.0"><path d="M 163.3196,199.3460 ZM 163.4263,198.2784 l -5.0889,-2.9381 c -0.2024,-0.1168 -0.2795,-0.3812 -0.1584 -0.5911c 0.1212,-0.2099 0.3931,-0.2827 0.5954 -0.1659l 2.1660,1.2505 l 1.2808,-2.2184 l -2.1660,-1.2505 c -0.2024,-0.1168 -0.2795,-0.3812 -0.1584 -0.5911c 0.1212,-0.2099 0.3931,-0.2827 0.5954 -0.1659l 5.0889,2.9381 c 0.2099,0.1212 0.2827,0.3931 0.1616 0.6029c -0.1212,0.2099 -0.3887,0.2752 -0.5986 0.1541l -2.1660,-1.2505 l -1.2808,2.2184 l 2.1660,1.2505 c 0.2099,0.1212 0.2827,0.3931 0.1616 0.6029c -0.1212,0.2099 -0.3887,0.2752 -0.5986 0.1541Z"/></g><g stroke-linejoin="miter" stroke-opacity="1.0" fill-opacity="1.0" stroke="rgb(0,0,0)" fill-rule="evenodd" stroke-width="0.0" fill="rgb(0,0,0)" stroke-linecap="butt" stroke-miterlimit="10.0"><path d="M 236.8758,153.2658 ZM 237.8278,152.8245 l 1.7568,-5.9974 c 0.0519,-0.1817 0.2164,-0.3116 0.4154 -0.3116c 0.1904,-0.0000 0.3721,0.1298 0.4241 0.3116l 1.7481,5.9974 c 0.0000,0.2423 -0.2077,0.4414 -0.4500 0.4414c -0.1990,-0.0000 -0.3635,-0.1298 -0.4154 -0.3116l -0.3375,-1.1597 h -1.9299 l -0.3375,1.1597 c -0.0519,0.1817 -0.2250,0.3116 -0.4241 0.3116c -0.2423,-0.0000 -0.4500,-0.1990 -0.4500 -0.4414ZM 237.8278,152.8245 ZM 239.2990,150.9205 h 1.4106 l -0.7096,-2.4059 Z"/></g><g stroke-linejoin="miter" stroke-opacity="1.0" fill-opacity="1.0" stroke="rgb(0,0,0)" fill-rule="evenodd" stroke-width="0.0" fill="rgb(0,0,0)" stroke-linecap="butt" stroke-miterlimit="10.0"><path d="M 313.5476,193.9198 ZM 314.4188,194.5460 l 5.4637,-3.1545 l 1.4972,2.5932 c 0.3591,0.6221 0.1406,1.4378 -0.4815 1.7969l -0.3897,0.2250 c -0.6146,0.3548 -1.4421,0.1331 -1.7969 -0.4815l -0.2510,-0.4347 l -1.7298,3.0273 c -0.0426,0.0646 -0.0896,0.1217 -0.1571 0.1606c -0.2099,0.1212 -0.4818,0.0483 -0.6029 -0.1616c -0.0822,-0.1424 -0.0765,-0.3056 -0.0030 -0.4379l 1.9822,-3.4728 l -0.2986,-0.5171 l -2.7955,1.6140 c -0.2099,0.1212 -0.4818,0.0483 -0.6029 -0.1616c -0.1212,-0.2099 -0.0440,-0.4743 0.1659 -0.5954ZM 314.4188,194.5460 ZM 318.4083,193.2520 l 1.0601,1.8362 c 0.1168,0.2024 0.4006,0.2784 0.6029 0.1616l 0.3897,-0.2250 c 0.2099,-0.1212 0.2784,-0.4006 0.1616 -0.6029l -1.0601,-1.8362 l -1.1542,0.6664 Z"/></g><g stroke-linejoin="round" stroke-opacity="1.0" fill-opacity="0.2222222222222222" stroke="rgb(0,0,0)" stroke-width="1.7867613294760314" fill="rgb(255,255,255)" stroke-linecap="butt" stroke-miterlimit="10.0"><path d="M 240.0000,137.3438 l 59.2686,171.0937 l -59.2686,-34.2187 l -59.2686,34.2187 Z"/></g><g stroke-linejoin="miter" stroke-opacity="1.0" fill-opacity="0.0" stroke="rgb(0,0,0)" stroke-width="1.7867613294760314" fill="rgb(0,0,0)" stroke-linecap="butt" stroke-miterlimit="10.0"><path d="M 125.6963,305.9933 l 114.3037,65.9933 l 114.3037,-65.9933 l -0.0000,-131.9865 l -114.3037,-65.9933 l -114.3037,65.9933 Z"/></g><g stroke-linejoin="miter" stroke-opacity="1.0" fill-opacity="0.0" stroke="rgb(0,0,0)" stroke-width="1.7867613294760314" fill="rgb(0,0,0)" stroke-linecap="butt" stroke-miterlimit="10.0"><path d="M 151.0971,291.3281 l 88.9029,51.3281 l 88.9029,-51.3281 l -0.0000,-102.6562 l -88.9029,-51.3281 l -88.9029,51.3281 Z"/></g><g stroke-linejoin="round" stroke-opacity="1.0" fill-opacity="0.2222222222222222" stroke="rgb(0,0,0)" stroke-width="1.7867613294760314" fill="rgb(0,0,0)" stroke-linecap="butt" stroke-miterlimit="10.0"><path d="M 240.0000,342.6562 l -59.2686,-171.0937 l 59.2686,34.2187 l 59.2686,-34.2187 Z"/></g><g stroke-linejoin="miter" stroke-opacity="1.0" fill-opacity="0.0" stroke="rgb(0,0,0)" stroke-width="1.7867613294760314" fill="rgb(0,0,0)" stroke-linecap="butt" stroke-miterlimit="10.0"><path d="M 354.3037,174.0067 l -114.3037,-65.9933 l -114.3037,65.9933 l 0.0000,131.9865 l 114.3037,65.9933 l 114.3037,-65.9933 Z"/></g><g stroke-linejoin="miter" stroke-opacity="1.0" fill-opacity="0.0" stroke="rgb(0,0,0)" stroke-width="1.7867613294760314" fill="rgb(0,0,0)" stroke-linecap="butt" stroke-miterlimit="10.0"><path d="M 328.9029,188.6719 l -88.9029,-51.3281 l -88.9029,51.3281 l 0.0000,102.6562 l 88.9029,51.3281 l 88.9029,-51.3281 Z"/></g><g stroke-linejoin="miter" stroke-opacity="1.0" fill-opacity="1.0" stroke="rgb(0,0,0)" fill-rule="evenodd" stroke-width="0.0" fill="rgb(0,0,0)" stroke-linecap="butt" stroke-miterlimit="10.0"><path d="M 338.5891,292.2694 ZM 338.4519,293.6420 l 7.0247,4.0557 l -0.7010,1.2142 l -2.3706,0.2116 l 1.0076,2.1492 l -0.7066,1.2238 l -7.0247,-4.0557 c -0.2698,-0.1558 -0.3635,-0.5054 -0.2077 -0.7752c 0.1558,-0.2698 0.4998,-0.3538 0.7696 -0.1981l 5.6853,3.2824 l -0.8038,-1.7232 l -0.2505,-0.1446 c -0.2698,-0.1558 -0.3635,-0.5054 -0.2133 -0.7655c 0.1558,-0.2698 0.5054,-0.3635 0.7752 -0.2077l 0.2505,0.1446 l 1.8694,-0.1670 l -5.6660,-3.2713 c -0.2698,-0.1558 -0.3635,-0.5054 -0.2077 -0.7752c 0.1558,-0.2698 0.4998,-0.3538 0.7696 -0.1981Z"/></g><g stroke-linejoin="miter" stroke-opacity="1.0" fill-opacity="1.0" stroke="rgb(0,0,0)" fill-rule="evenodd" stroke-width="0.0" fill="rgb(0,0,0)" stroke-linecap="butt" stroke-miterlimit="10.0"><path d="M 244.0168,351.5154 ZM 242.7928,352.0828 l -2.2587,7.7109 c -0.0668,0.2337 -0.2782,0.4006 -0.5341 0.4006c -0.2448,-0.0000 -0.4785,-0.1669 -0.5452 -0.4006l -2.2476,-7.7109 c 0.0000,-0.3116 0.2670,-0.5675 0.5786 -0.5675c 0.2559,0.0000 0.4673,0.1669 0.5341 0.4006l 0.4339,1.4910 l 2.4813,0.0000 l 0.4339,-1.4910 c 0.0668,-0.2337 0.2893,-0.4006 0.5452 -0.4006c 0.3116,0.0000 0.5786,0.2559 0.5786 0.5675ZM 242.7928,352.0828 ZM 240.9013,354.5308 l -1.8137,-0.0000 l 0.9124,3.0933 Z"/></g><g stroke-linejoin="miter" stroke-opacity="1.0" fill-opacity="1.0" stroke="rgb(0,0,0)" fill-rule="evenodd" stroke-width="0.0" fill="rgb(0,0,0)" stroke-linecap="butt" stroke-miterlimit="10.0"><path d="M 145.4388,299.2460 ZM 144.3187,298.4408 l -7.0247,4.0557 l -1.9249,-3.3341 c -0.4618,-0.7998 -0.1807,-1.8486 0.6094 -2.3048l 1.7345,-1.0014 c 0.7998,-0.4618 1.8486,-0.1807 2.3103 0.6191l 1.3630,2.3609 l 2.3705,-1.3686 c 0.2698,-0.1558 0.6194,-0.0621 0.7752 0.2077c 0.1558,0.2698 0.0565,0.6098 -0.2133 0.7655ZM 144.3187,298.4408 ZM 140.4131,299.3981 l -1.3630,-2.3609 c -0.1502,-0.2602 -0.5054,-0.3635 -0.7752 -0.2077l -1.7345,1.0014 c -0.2602,0.1502 -0.3427,0.5191 -0.1981 0.7696l 1.3630,2.3609 l 2.7078,-1.5633 Z"/></g><g stroke-linejoin="miter" stroke-opacity="1.0" fill-opacity="1.0" stroke="rgb(0,0,0)" fill-rule="evenodd" stroke-width="0.0" fill="rgb(0,0,0)" stroke-linecap="butt" stroke-miterlimit="10.0"><path d="M 141.4109,187.7306 ZM 141.5481,186.3580 l -6.5429,-3.7776 c -0.2602,-0.1502 -0.3594,-0.4902 -0.2036 -0.7600c 0.1558,-0.2698 0.5054,-0.3635 0.7655 -0.2133l 2.7848,1.6078 l 1.6468,-2.8523 l -2.7848,-1.6078 c -0.2602,-0.1502 -0.3594,-0.4902 -0.2036 -0.7600c 0.1558,-0.2698 0.5054,-0.3635 0.7655 -0.2133l 6.5429,3.7776 c 0.2698,0.1558 0.3635,0.5054 0.2077 0.7752c -0.1558,0.2698 -0.4998,0.3538 -0.7696 0.1981l -2.7848,-1.6078 l -1.6468,2.8523 l 2.7848,1.6078 c 0.2698,0.1558 0.3635,0.5054 0.2077 0.7752c -0.1558,0.2698 -0.4998,0.3538 -0.7696 0.1981Z"/></g><g stroke-linejoin="miter" stroke-opacity="1.0" fill-opacity="1.0" stroke="rgb(0,0,0)" fill-rule="evenodd" stroke-width="0.0" fill="rgb(0,0,0)" stroke-linecap="butt" stroke-miterlimit="10.0"><path d="M 235.9832,128.4846 ZM 237.2072,127.9172 l 2.2587,-7.7109 c 0.0668,-0.2337 0.2782,-0.4006 0.5341 -0.4006c 0.2448,-0.0000 0.4785,0.1669 0.5452 0.4006l 2.2476,7.7109 c 0.0000,0.3116 -0.2670,0.5675 -0.5786 0.5675c -0.2559,-0.0000 -0.4673,-0.1669 -0.5341 -0.4006l -0.4339,-1.4910 h -2.4813 l -0.4339,1.4910 c -0.0668,0.2337 -0.2893,0.4006 -0.5452 0.4006c -0.3116,-0.0000 -0.5786,-0.2559 -0.5786 -0.5675ZM 237.2072,127.9172 ZM 239.0987,125.4692 h 1.8137 l -0.9124,-3.0933 Z"/></g><g stroke-linejoin="miter" stroke-opacity="1.0" fill-opacity="1.0" stroke="rgb(0,0,0)" fill-rule="evenodd" stroke-width="0.0" fill="rgb(0,0,0)" stroke-linecap="butt" stroke-miterlimit="10.0"><path d="M 334.5612,180.7540 ZM 335.6813,181.5592 l 7.0247,-4.0557 l 1.9249,3.3341 c 0.4618,0.7998 0.1807,1.8486 -0.6191 2.3103l -0.5011,0.2893 c -0.7902,0.4562 -1.8541,0.1711 -2.3103 -0.6191l -0.3227,-0.5589 l -2.2240,3.8922 c -0.0548,0.0831 -0.1152,0.1565 -0.2020 0.2065c -0.2698,0.1558 -0.6194,0.0621 -0.7752 -0.2077c -0.1057,-0.1831 -0.0984,-0.3929 -0.0039 -0.5631l 2.5485,-4.4650 l -0.3839,-0.6649 l -3.5943,2.0752 c -0.2698,0.1558 -0.6194,0.0621 -0.7752 -0.2077c -0.1558,-0.2698 -0.0565,-0.6098 0.2133 -0.7655ZM 335.6813,181.5592 ZM 340.8107,179.8954 l 1.3630,2.3609 c 0.1502,0.2602 0.5150,0.3579 0.7752 0.2077l 0.5011,-0.2893 c 0.2698,-0.1558 0.3579,-0.5150 0.2077 -0.7752l -1.3630,-2.3609 l -1.4840,0.8568 Z"/></g><g stroke-linejoin="round" stroke-opacity="1.0" fill-opacity="0.2222222222222222" stroke="rgb(0,0,0)" stroke-width="1.7867613294760314" fill="rgb(255,255,255)" stroke-linecap="butt" stroke-miterlimit="10.0"><path d="M 240.0000,108.0135 l 76.2025,219.9776 l -76.2025,-43.9955 l -76.2025,43.9955 Z"/></g><g stroke-linejoin="miter" stroke-opacity="1.0" fill-opacity="0.0" stroke="rgb(0,0,0)" stroke-width="1.7867613294760314" fill="rgb(0,0,0)" stroke-linecap="butt" stroke-miterlimit="10.0"><path d="M 93.0381,324.8485 l 146.9619,84.8485 l 146.9619,-84.8485 l -0.0000,-169.6970 l -146.9619,-84.8485 l -146.9619,84.8485 Z"/></g><g stroke-linejoin="miter" stroke-opacity="1.0" fill-opacity="0.0" stroke="rgb(0,0,0)" stroke-width="1.7867613294760314" fill="rgb(0,0,0)" stroke-linecap="butt" stroke-miterlimit="10.0"><path d="M 125.6963,305.9933 l 114.3037,65.9933 l 114.3037,-65.9933 l -0.0000,-131.9865 l -114.3037,-65.9933 l -114.3037,65.9933 Z"/></g><g stroke-linejoin="round" stroke-opacity="1.0" fill-opacity="0.2222222222222222" stroke="rgb(0,0,0)" stroke-width="1.7867613294760314" fill="rgb(0,0,0)" stroke-linecap="butt" stroke-miterlimit="10.0"><path d="M 240.0000,371.9865 l -76.2025,-219.9776 l 76.2025,43.9955 l 76.2025,-43.9955 Z"/></g><g stroke-linejoin="miter" stroke-opacity="1.0" fill-opacity="0.0" stroke="rgb(0,0,0)" stroke-width="1.7867613294760314" fill="rgb(0,0,0)" stroke-linecap="butt" stroke-miterlimit="10.0"><path d="M 386.9619,155.1515 l -146.9619,-84.8485 l -146.9619,84.8485 l 0.0000,169.6970 l 146.9619,84.8485 l 146.9619,-84.8485 Z"/></g><g stroke-linejoin="miter" stroke-opacity="1.0" fill-opacity="0.0" stroke="rgb(0,0,0)" stroke-width="1.7867613294760314" fill="rgb(0,0,0)" stroke-linecap="butt" stroke-miterlimit="10.0"><path d="M 354.3037,174.0067 l -114.3037,-65.9933 l -114.3037,65.9933 l 0.0000,131.9865 l 114.3037,65.9933 l 114.3037,-65.9933 Z"/></g><g stroke-linejoin="miter" stroke-opacity="1.0" fill-opacity="1.0" stroke="rgb(0,0,0)" fill-rule="evenodd" stroke-width="0.0" fill="rgb(0,0,0)" stroke-linecap="butt" stroke-miterlimit="10.0"><path d="M 366.7574,307.2035 ZM 366.5810,308.9683 l 9.0318,5.2145 l -0.9013,1.5611 l -3.0479,0.2721 l 1.2955,2.7633 l -0.9084,1.5734 l -9.0318,-5.2145 c -0.3469,-0.2003 -0.4673,-0.6498 -0.2671 -0.9967c 0.2003,-0.3469 0.6426,-0.4549 0.9895 -0.2547l 7.3097,4.2203 l -1.0335,-2.2156 l -0.3221,-0.1860 c -0.3469,-0.2003 -0.4673,-0.6498 -0.2742 -0.9843c 0.2003,-0.3469 0.6498,-0.4673 0.9967 -0.2671l 0.3221,0.1860 l 2.4036,-0.2147 l -7.2849,-4.2059 c -0.3469,-0.2003 -0.4673,-0.6498 -0.2671 -0.9967c 0.2003,-0.3469 0.6426,-0.4549 0.9895 -0.2547Z"/></g><g stroke-linejoin="miter" stroke-opacity="1.0" fill-opacity="1.0" stroke="rgb(0,0,0)" fill-rule="evenodd" stroke-width="0.0" fill="rgb(0,0,0)" stroke-linecap="butt" stroke-miterlimit="10.0"><path d="M 245.1644,383.3769 ZM 243.5908,384.1065 l -2.9041,9.9140 c -0.0858,0.3004 -0.3576,0.5150 -0.6867 0.5150c -0.3147,-0.0000 -0.6152,-0.2146 -0.7010 -0.5150l -2.8898,-9.9140 c 0.0000,-0.4006 0.3433,-0.7296 0.7439 -0.7296c 0.3290,0.0000 0.6008,0.2146 0.6867 0.5150l 0.5579,1.9170 l 3.1902,0.0000 l 0.5579,-1.9170 c 0.0858,-0.3004 0.3720,-0.5150 0.7010 -0.5150c 0.4006,0.0000 0.7439,0.3290 0.7439 0.7296ZM 243.5908,384.1065 ZM 241.1588,387.2538 l -2.3319,-0.0000 l 1.1731,3.9770 Z"/></g><g stroke-linejoin="miter" stroke-opacity="1.0" fill-opacity="1.0" stroke="rgb(0,0,0)" fill-rule="evenodd" stroke-width="0.0" fill="rgb(0,0,0)" stroke-linecap="butt" stroke-miterlimit="10.0"><path d="M 118.4213,316.1734 ZM 116.9812,315.1382 l -9.0318,5.2145 l -2.4749,-4.2867 c -0.5937,-1.0283 -0.2324,-2.3767 0.7835 -2.9633l 2.2301,-1.2875 c 1.0283,-0.5937 2.3767,-0.2324 2.9704 0.7959l 1.7525,3.0354 l 3.0478,-1.7596 c 0.3469,-0.2003 0.7964,-0.0798 0.9967 0.2671c 0.2003,0.3469 0.0727,0.7840 -0.2742 0.9843ZM 116.9812,315.1382 ZM 111.9596,316.3690 l -1.7525,-3.0354 c -0.1931,-0.3345 -0.6498,-0.4673 -0.9967 -0.2671l -2.2301,1.2875 c -0.3345,0.1931 -0.4406,0.6674 -0.2547 0.9895l 1.7525,3.0354 l 3.4814,-2.0100 Z"/></g><g stroke-linejoin="miter" stroke-opacity="1.0" fill-opacity="1.0" stroke="rgb(0,0,0)" fill-rule="evenodd" stroke-width="0.0" fill="rgb(0,0,0)" stroke-linecap="butt" stroke-miterlimit="10.0"><path d="M 113.2426,172.7965 ZM 113.4190,171.0317 l -8.4123,-4.8569 c -0.3345,-0.1931 -0.4621,-0.6302 -0.2618 -0.9771c 0.2003,-0.3469 0.6498,-0.4673 0.9843 -0.2742l 3.5805,2.0672 l 2.1173,-3.6672 l -3.5805,-2.0672 c -0.3345,-0.1931 -0.4621,-0.6302 -0.2618 -0.9771c 0.2003,-0.3469 0.6498,-0.4673 0.9843 -0.2742l 8.4123,4.8569 c 0.3469,0.2003 0.4673,0.6498 0.2671 0.9967c -0.2003,0.3469 -0.6426,0.4549 -0.9895 0.2547l -3.5805,-2.0672 l -2.1173,3.6672 l 3.5805,2.0672 c 0.3469,0.2003 0.4673,0.6498 0.2671 0.9967c -0.2003,0.3469 -0.6426,0.4549 -0.9895 0.2547Z"/></g><g stroke-linejoin="miter" stroke-opacity="1.0" fill-opacity="1.0" stroke="rgb(0,0,0)" fill-rule="evenodd" stroke-width="0.0" fill="rgb(0,0,0)" stroke-linecap="butt" stroke-miterlimit="10.0"><path d="M 234.8356,96.6231 ZM 236.4092,95.8935 l 2.9041,-9.9140 c 0.0858,-0.3004 0.3576,-0.5150 0.6867 -0.5150c 0.3147,-0.0000 0.6152,0.2146 0.7010 0.5150l 2.8898,9.9140 c 0.0000,0.4006 -0.3433,0.7296 -0.7439 0.7296c -0.3290,-0.0000 -0.6008,-0.2146 -0.6867 -0.5150l -0.5579,-1.9170 h -3.1902 l -0.5579,1.9170 c -0.0858,0.3004 -0.3720,0.5150 -0.7010 0.5150c -0.4006,-0.0000 -0.7439,-0.3290 -0.7439 -0.7296ZM 236.4092,95.8935 ZM 238.8412,92.7462 h 2.3319 l -1.1731,-3.9770 Z"/></g><g stroke-linejoin="miter" stroke-opacity="1.0" fill-opacity="1.0" stroke="rgb(0,0,0)" fill-rule="evenodd" stroke-width="0.0" fill="rgb(0,0,0)" stroke-linecap="butt" stroke-miterlimit="10.0"><path d="M 361.5787,163.8266 ZM 363.0188,164.8618 l 9.0318,-5.2145 l 2.4749,4.2867 c 0.5937,1.0283 0.2324,2.3767 -0.7959 2.9704l -0.6442,0.3720 c -1.0159,0.5865 -2.3839,0.2200 -2.9704 -0.7959l -0.4149,-0.7186 l -2.8594,5.0043 c -0.0705,0.1068 -0.1482,0.2012 -0.2597 0.2655c -0.3469,0.2003 -0.7964,0.0798 -0.9967 -0.2671c -0.1359,-0.2354 -0.1265,-0.5052 -0.0050 -0.7240l 3.2767,-5.7407 l -0.4936,-0.8549 l -4.6212,2.6681 c -0.3469,0.2003 -0.7964,0.0798 -0.9967 -0.2671c -0.2003,-0.3469 -0.0727,-0.7840 0.2742 -0.9843ZM 363.0188,164.8618 ZM 369.6138,162.7226 l 1.7525,3.0354 c 0.1931,0.3345 0.6621,0.4602 0.9967 0.2671l 0.6442,-0.3720 c 0.3469,-0.2003 0.4602,-0.6621 0.2671 -0.9967l -1.7525,-3.0354 l -1.9080,1.1016 Z"/></g><g stroke-linejoin="round" stroke-opacity="1.0" fill-opacity="0.2222222222222222" stroke="rgb(0,0,0)" stroke-width="1.7867613294760314" fill="rgb(255,255,255)" stroke-linecap="butt" stroke-miterlimit="10.0"><path d="M 240.0000,70.3030 l 97.9746,282.8283 l -97.9746,-56.5657 l -97.9746,56.5657 Z"/></g><g stroke-linejoin="miter" stroke-opacity="1.0" fill-opacity="0.0" stroke="rgb(0,0,0)" stroke-width="1.7867613294760314" fill="rgb(0,0,0)" stroke-linecap="butt" stroke-miterlimit="10.0"><path d="M 51.0490,349.0909 l 188.9510,109.0909 l 188.9510,-109.0909 l -0.0000,-218.1818 l -188.9510,-109.0909 l -188.9510,109.0909 Z"/></g><g stroke-linejoin="miter" stroke-opacity="1.0" fill-opacity="0.0" stroke="rgb(0,0,0)" stroke-width="1.7867613294760314" fill="rgb(0,0,0)" stroke-linecap="butt" stroke-miterlimit="10.0"><path d="M 93.0381,324.8485 l 146.9619,84.8485 l 146.9619,-84.8485 l -0.0000,-169.6970 l -146.9619,-84.8485 l -146.9619,84.8485 Z"/></g><g stroke-linejoin="round" stroke-opacity="1.0" fill-opacity="0.2222222222222222" stroke="rgb(0,0,0)" stroke-width="1.7867613294760314" fill="rgb(0,0,0)" stroke-linecap="butt" stroke-miterlimit="10.0"><path d="M 240.0000,409.6970 l -97.9746,-282.8283 l 97.9746,56.5657 l 97.9746,-56.5657 Z"/></g><g stroke-linejoin="miter" stroke-opacity="1.0" fill-opacity="0.0" stroke="rgb(0,0,0)" stroke-width="1.7867613294760314" fill="rgb(0,0,0)" stroke-linecap="butt" stroke-miterlimit="10.0"><path d="M 428.9510,130.9091 l -188.9510,-109.0909 l -188.9510,109.0909 l 0.0000,218.1818 l 188.9510,109.0909 l 188.9510,-109.0909 Z"/></g><g stroke-linejoin="miter" stroke-opacity="1.0" fill-opacity="0.0" stroke="rgb(0,0,0)" stroke-width="1.7867613294760314" fill="rgb(0,0,0)" stroke-linecap="butt" stroke-miterlimit="10.0"><path d="M 386.9619,155.1515 l -146.9619,-84.8485 l -146.9619,84.8485 l 0.0000,169.6970 l 146.9619,84.8485 l 146.9619,-84.8485 Z"/></g><g stroke-linejoin="miter" stroke-opacity="1.0" fill-opacity="1.0" stroke="rgb(0,0,0)" fill-rule="evenodd" stroke-width="0.0" fill="rgb(0,0,0)" stroke-linecap="butt" stroke-miterlimit="10.0"><path d="M 402.9738,326.4045 ZM 402.7470,328.6736 l 11.6123,6.7044 l -1.1588,2.0071 l -3.9188,0.3499 l 1.6656,3.5528 l -1.1680,2.0230 l -11.6123,-6.7044 c -0.4460,-0.2575 -0.6009,-0.8354 -0.3434 -1.2814c 0.2575,-0.4460 0.8262,-0.5849 1.2722 -0.3274l 9.3982,5.4260 l -1.3288,-2.8486 l -0.4142,-0.2391 c -0.4460,-0.2575 -0.6009,-0.8354 -0.3526 -1.2655c 0.2575,-0.4460 0.8354,-0.6009 1.2814 -0.3434l 0.4142,0.2391 l 3.0903,-0.2760 l -9.3663,-5.4076 c -0.4460,-0.2575 -0.6009,-0.8354 -0.3434 -1.2814c 0.2575,-0.4460 0.8262,-0.5849 1.2722 -0.3274Z"/></g><g stroke-linejoin="miter" stroke-opacity="1.0" fill-opacity="1.0" stroke="rgb(0,0,0)" fill-rule="evenodd" stroke-width="0.0" fill="rgb(0,0,0)" stroke-linecap="butt" stroke-miterlimit="10.0"><path d="M 246.6400,424.3417 ZM 244.6167,425.2798 l -3.7338,12.7466 c -0.1104,0.3863 -0.4598,0.6622 -0.8829 0.6622c -0.4047,-0.0000 -0.7909,-0.2759 -0.9013 -0.6622l -3.7155,-12.7466 c 0.0000,-0.5150 0.4414,-0.9381 0.9565 -0.9381c 0.4230,0.0000 0.7725,0.2759 0.8829 0.6622l 0.7173,2.4647 l 4.1017,0.0000 l 0.7173,-2.4647 c 0.1104,-0.3863 0.4782,-0.6622 0.9013 -0.6622c 0.5150,0.0000 0.9565,0.4230 0.9565 0.9381ZM 244.6167,425.2798 ZM 241.4899,429.3263 l -2.9981,-0.0000 l 1.5083,5.1133 Z"/></g><g stroke-linejoin="miter" stroke-opacity="1.0" fill-opacity="1.0" stroke="rgb(0,0,0)" fill-rule="evenodd" stroke-width="0.0" fill="rgb(0,0,0)" stroke-linecap="butt" stroke-miterlimit="10.0"><path d="M 83.6846,337.9372 ZM 81.8329,336.6063 l -11.6123,6.7044 l -3.1820,-5.5115 c -0.7633,-1.3221 -0.2988,-3.0558 1.0074 -3.8099l 2.8672,-1.6554 c 1.3221,-0.7633 3.0558,-0.2988 3.8191 1.0233l 2.2532,3.9026 l 3.9186,-2.2624 c 0.4460,-0.2575 1.0239,-0.1027 1.2814 0.3434c 0.2575,0.4460 0.0935,1.0080 -0.3526 1.2655ZM 81.8329,336.6063 ZM 75.3767,338.1887 l -2.2532,-3.9026 c -0.2483,-0.4301 -0.8354,-0.6009 -1.2814 -0.3434l -2.8672,1.6554 c -0.4301,0.2483 -0.5665,0.8581 -0.3274 1.2722l 2.2532,3.9026 l 4.4761,-2.5843 Z"/></g><g stroke-linejoin="miter" stroke-opacity="1.0" fill-opacity="1.0" stroke="rgb(0,0,0)" fill-rule="evenodd" stroke-width="0.0" fill="rgb(0,0,0)" stroke-linecap="butt" stroke-miterlimit="10.0"><path d="M 77.0262,153.5955 ZM 77.2530,151.3264 l -10.8159,-6.2445 c -0.4301,-0.2483 -0.5941,-0.8103 -0.3366 -1.2563c 0.2575,-0.4460 0.8354,-0.6009 1.2655 -0.3526l 4.6035,2.6578 l 2.7222,-4.7150 l -4.6035,-2.6578 c -0.4301,-0.2483 -0.5941,-0.8103 -0.3366 -1.2563c 0.2575,-0.4460 0.8354,-0.6009 1.2655 -0.3526l 10.8159,6.2445 c 0.4460,0.2575 0.6009,0.8354 0.3434 1.2814c -0.2575,0.4460 -0.8262,0.5849 -1.2722 0.3274l -4.6035,-2.6578 l -2.7222,4.7150 l 4.6035,2.6578 c 0.4460,0.2575 0.6009,0.8354 0.3434 1.2814c -0.2575,0.4460 -0.8262,0.5849 -1.2722 0.3274Z"/></g><g stroke-linejoin="miter" stroke-opacity="1.0" fill-opacity="1.0" stroke="rgb(0,0,0)" fill-rule="evenodd" stroke-width="0.0" fill="rgb(0,0,0)" stroke-linecap="butt" stroke-miterlimit="10.0"><path d="M 233.3600,55.6583 ZM 235.3833,54.7202 l 3.7338,-12.7466 c 0.1104,-0.3863 0.4598,-0.6622 0.8829 -0.6622c 0.4047,-0.0000 0.7909,0.2759 0.9013 0.6622l 3.7155,12.7466 c 0.0000,0.5150 -0.4414,0.9381 -0.9565 0.9381c -0.4230,-0.0000 -0.7725,-0.2759 -0.8829 -0.6622l -0.7173,-2.4647 h -4.1017 l -0.7173,2.4647 c -0.1104,0.3863 -0.4782,0.6622 -0.9013 0.6622c -0.5150,-0.0000 -0.9565,-0.4230 -0.9565 -0.9381ZM 235.3833,54.7202 ZM 238.5101,50.6737 h 2.9981 l -1.5083,-5.1133 Z"/></g><g stroke-linejoin="miter" stroke-opacity="1.0" fill-opacity="1.0" stroke="rgb(0,0,0)" fill-rule="evenodd" stroke-width="0.0" fill="rgb(0,0,0)" stroke-linecap="butt" stroke-miterlimit="10.0"><path d="M 396.3154,142.0628 ZM 398.1671,143.3937 l 11.6123,-6.7044 l 3.1820,5.5115 c 0.7633,1.3221 0.2988,3.0558 -1.0233 3.8191l -0.8283,0.4782 c -1.3062,0.7541 -3.0650,0.2829 -3.8191 -1.0233l -0.5334,-0.9239 l -3.6764,6.4340 c -0.0906,0.1373 -0.1905,0.2587 -0.3339 0.3414c -0.4460,0.2575 -1.0239,0.1027 -1.2814 -0.3434c -0.1747,-0.3027 -0.1626,-0.6495 -0.0064 -0.9308l 4.2129,-7.3810 l -0.6346,-1.0991 l -5.9416,3.4304 c -0.4460,0.2575 -1.0239,0.1027 -1.2814 -0.3434c -0.2575,-0.4460 -0.0935,-1.0080 0.3526 -1.2655ZM 398.1671,143.3937 ZM 406.6463,140.6434 l 2.2532,3.9026 c 0.2483,0.4301 0.8513,0.5917 1.2814 0.3434l 0.8283,-0.4782 c 0.4460,-0.2575 0.5917,-0.8513 0.3434 -1.2814l -2.2532,-3.9026 l -2.4531,1.4163 Z"/></g></svg>